<?xml version="1.0" encoding="UTF-8" standalone="no"?>
<svg
   xmlns:dc="http://purl.org/dc/elements/1.1/"
   xmlns:cc="http://creativecommons.org/ns#"
   xmlns:rdf="http://www.w3.org/1999/02/22-rdf-syntax-ns#"
   xmlns:svg="http://www.w3.org/2000/svg"
   xmlns="http://www.w3.org/2000/svg"
   xmlns:sodipodi="http://sodipodi.sourceforge.net/DTD/sodipodi-0.dtd"
   xmlns:inkscape="http://www.inkscape.org/namespaces/inkscape"
   inkscape:export-ydpi="96"
   inkscape:export-xdpi="96"
   inkscape:export-filename="C:\Users\aminv\Desktop\Personal_Website\images\vea_logo.png"
   sodipodi:docname="vea_logo.svg"
   inkscape:version="1.0 (4035a4fb49, 2020-05-01)"
   id="svg8"
   version="1.1"
   viewBox="0 0 88.9 50.8"
   height="2in"
   width="3.5in">
  <defs
     id="defs2" />
  <sodipodi:namedview
     inkscape:window-maximized="1"
     inkscape:window-y="-11"
     inkscape:window-x="-11"
     inkscape:window-height="1410"
     inkscape:window-width="2256"
     units="in"
     showgrid="false"
     inkscape:document-rotation="0"
     inkscape:current-layer="g917"
     inkscape:document-units="in"
     inkscape:cy="63.820585"
     inkscape:cx="202.25247"
     inkscape:zoom="3.959798"
     inkscape:pageshadow="2"
     inkscape:pageopacity="0.0"
     borderopacity="1.0"
     bordercolor="#666666"
     pagecolor="#ffffff"
     id="base">
    <inkscape:grid
       type="xygrid"
       id="grid830" />
  </sodipodi:namedview>
  <metadata
     id="metadata5">
    <rdf:RDF>
      <cc:Work
         rdf:about="">
        <dc:format>image/svg+xml</dc:format>
        <dc:type
           rdf:resource="http://purl.org/dc/dcmitype/StillImage" />
        <dc:title />
      </cc:Work>
    </rdf:RDF>
  </metadata>
  <g
     id="layer1"
     inkscape:groupmode="layer"
     inkscape:label="Layer 1">
    <g
       id="g917">
      <path
         style="fill:none;stroke:#000000;stroke-width:1.524;stroke-linecap:butt;stroke-linejoin:miter;stroke-miterlimit:4;stroke-dasharray:none;stroke-opacity:1"
         d="m 31.436493,43.650545 51.112949,0.03746"
         id="path836-7" />
      <path
         id="path836"
         d="M 6.3505585,7.1119953 57.463507,7.1494603"
         style="fill:none;stroke:#000000;stroke-width:1.524;stroke-linecap:butt;stroke-linejoin:miter;stroke-miterlimit:4;stroke-dasharray:none;stroke-opacity:1" />
      <path
         style="fill:none;stroke:#000000;stroke-width:1.524;stroke-linecap:butt;stroke-linejoin:miter;stroke-miterlimit:4;stroke-dasharray:none;stroke-opacity:1"
         d="m 18.893526,25.381265 51.112948,0.03747"
         id="path836-2" />
      <path
         sodipodi:nodetypes="ccscscc"
         id="path834"
         d="m 6.35,7.1119955 c 6.349997,0 12.699999,18.2880055 12.699999,18.2880055 0,0 6.349996,18.288004 12.699999,18.288004 6.350002,0 12.7,-18.288004 12.7,-18.288004 0,0 6.350001,-18.2880055 12.700004,-18.2880055 6.349996,0 12.699999,18.2880055 12.699999,18.2880055 0,0 6.350004,18.288004 12.699999,18.288004"
         style="fill:none;stroke:#ffffff;stroke-width:3.048;stroke-linecap:butt;stroke-linejoin:miter;stroke-miterlimit:4;stroke-dasharray:none;stroke-opacity:1" />
      <path
         style="fill:none;stroke:#ffffff;stroke-width:6.096;stroke-linecap:butt;stroke-linejoin:miter;stroke-miterlimit:4;stroke-dasharray:none;stroke-opacity:1;fill-opacity:1"
         d="m 6.35,7.1119955 c 6.349997,0 12.699999,18.2880065 12.699999,18.2880065 0,0 6.349996,18.288005 12.699999,18.288005 6.350002,0 12.699999,-18.288005 12.699999,-18.288005 0,0 6.350003,-18.2880065 12.700006,-18.2880065 6.349994,0 12.7,18.2880065 12.7,18.2880065 0,0 6.350002,18.288005 12.699997,18.288005"
         id="path834-8"
         sodipodi:nodetypes="ccscscc" />
      <path
         sodipodi:nodetypes="ccscscc"
         id="path834-8-4"
         d="m 6.3499999,7.1119958 c 6.3499971,0 12.6999991,18.2880062 12.6999991,18.2880062 0,0 6.349997,18.288005 12.699999,18.288005 6.350002,0 12.699999,-18.288005 12.699999,-18.288005 0,0 6.350003,-18.2880062 12.700006,-18.2880062 6.349994,0 12.7,18.2880062 12.7,18.2880062 0,0 6.350002,18.288005 12.699997,18.288005"
         style="fill:none;stroke:#000000;stroke-width:1.524;stroke-linecap:butt;stroke-linejoin:miter;stroke-miterlimit:4;stroke-dasharray:none;stroke-opacity:1" />
    </g>
  </g>
</svg>
